{
  "asset": {
    "version": "2.0",
    "generator": "MallcoreSimPropGen"
  },
  "scene": 0,
  "scenes": [
    {
      "name": "Scene",
      "nodes": [
        0
      ]
    }
  ],
  "nodes": [
    {
      "name": "GameCase",
      "mesh": 0
    }
  ],
  "meshes": [
    {
      "name": "GameCaseMesh",
      "primitives": [
        {
          "attributes": {
            "POSITION": 0,
            "NORMAL": 1,
            "TEXCOORD_0": 2
          },
          "indices": 3,
          "material": 0,
          "mode": 4
        }
      ]
    }
  ],
  "materials": [
    {
      "pbrMetallicRoughness": {
        "baseColorFactor": [
          0.78,
          0.74,
          0.62,
          1.0
        ],
        "metallicFactor": 0.05,
        "roughnessFactor": 0.55
      }
    }
  ],
  "accessors": [
    {
      "bufferView": 0,
      "byteOffset": 0,
      "componentType": 5126,
      "count": 24,
      "type": "VEC3",
      "min": [
        -0.085,
        -0.11,
        -0.0075
      ],
      "max": [
        0.085,
        0.11,
        0.0075
      ]
    },
    {
      "bufferView": 1,
      "byteOffset": 0,
      "componentType": 5126,
      "count": 24,
      "type": "VEC3"
    },
    {
      "bufferView": 2,
      "byteOffset": 0,
      "componentType": 5126,
      "count": 24,
      "type": "VEC2"
    },
    {
      "bufferView": 3,
      "byteOffset": 0,
      "componentType": 5123,
      "count": 36,
      "type": "SCALAR"
    }
  ],
  "bufferViews": [
    {
      "buffer": 0,
      "byteOffset": 0,
      "byteLength": 288,
      "target": 34962
    },
    {
      "buffer": 0,
      "byteOffset": 288,
      "byteLength": 288,
      "target": 34962
    },
    {
      "buffer": 0,
      "byteOffset": 576,
      "byteLength": 192,
      "target": 34962
    },
    {
      "buffer": 0,
      "byteOffset": 768,
      "byteLength": 72,
      "target": 34963
    }
  ],
  "buffers": [
    {
      "byteLength": 840,
      "uri": "data:application/octet-stream;base64,"
    }
  ]
}
